<svg width="122" height="29" viewBox="0 0 122 29" fill="none" xmlns="http://www.w3.org/2000/svg">
<path fill-rule="evenodd" clip-rule="evenodd" d="M6.59531 26.6963C8.65595 27.9038 11.0644 28.5075 13.8206 28.5075C16.5506 28.5075 18.9525 27.9038 21.0263 26.6963C23.1 25.4887 24.7144 23.8153 25.8694 21.6759C27.0244 19.5366 27.6019 17.0625 27.6019 14.2537C27.6019 11.445 27.0244 8.97095 25.8694 6.83156C24.7144 4.69218 23.1 3.01876 21.0263 1.81125C18.9525 0.603744 16.5506 0 13.8206 0C11.0644 0 8.65595 0.603744 6.59531 1.81125C4.53468 3.01876 2.92032 4.69218 1.75219 6.83156C0.584057 8.97095 0 11.445 0 14.2537C0 17.0625 0.584057 19.5366 1.75219 21.6759C2.92032 23.8153 4.53468 25.4887 6.59531 26.6963ZM20.1009 21.3806C18.5391 23.1131 16.4456 23.9794 13.8206 23.9794C11.1956 23.9794 9.09563 23.1131 7.52063 21.3806C5.94562 19.6481 5.15812 17.2725 5.15812 14.2537C5.15812 11.235 5.94562 8.85938 7.52063 7.12687C9.09563 5.39437 11.1956 4.52812 13.8206 4.52812C16.4456 4.52812 18.5391 5.39437 20.1009 7.12687C21.6628 8.85938 22.4438 11.235 22.4438 14.2537C22.4438 17.2725 21.6628 19.6481 20.1009 21.3806ZM32.0513 0.4725H42.1706C44.3756 0.4725 46.1934 0.846559 47.6241 1.59469C49.0547 2.34282 50.1244 3.35343 50.8331 4.62656C51.5419 5.89969 51.8962 7.31062 51.8962 8.85938C51.8962 10.5394 51.4566 12.075 50.5772 13.4662C49.6978 14.8575 48.3263 15.8681 46.4625 16.4981L52.1719 28.035H46.3838L41.265 17.1675H37.0913V28.035H32.0513V0.4725ZM41.8556 13.4663H37.0913V4.68563H41.8162C43.5488 4.68563 44.8022 5.07937 45.5766 5.86688C46.3509 6.65438 46.7381 7.70437 46.7381 9.01688C46.7381 10.3556 46.3444 11.4319 45.5569 12.2456C44.7694 13.0594 43.5356 13.4663 41.8556 13.4663ZM56.5819 0.4725H74.5762V4.52812H61.6219V12.0881H73.395V16.0256H61.6219V23.9794H74.5762V28.035H56.5819V0.4725ZM90.405 0.4725H79.3406V28.035H90.7987C93.6863 28.035 95.9175 27.3263 97.4925 25.9088C99.0675 24.4912 99.855 22.6931 99.855 20.5144C99.855 18.8606 99.3431 17.4103 98.3194 16.1634C97.2956 14.9166 95.9963 14.1356 94.4212 13.8206C95.76 13.4531 96.8953 12.7509 97.8272 11.7141C98.7591 10.6772 99.225 9.29251 99.225 7.56C99.225 5.48624 98.4703 3.78657 96.9609 2.46094C95.4516 1.13531 93.2663 0.4725 90.405 0.4725ZM84.3806 12.0487H89.6569C91.0744 12.0487 92.1637 11.7206 92.925 11.0644C93.6862 10.4081 94.0669 9.47626 94.0669 8.26875C94.0669 7.11374 93.6928 6.20157 92.9447 5.53219C92.1966 4.86281 91.0744 4.52812 89.5781 4.52812H84.3806V12.0487ZM90.0112 23.94H84.3806V15.8287H89.9325C91.4025 15.8287 92.5706 16.1962 93.4369 16.9312C94.3031 17.6663 94.7363 18.6769 94.7363 19.9631C94.7363 21.2231 94.3228 22.2009 93.4959 22.8966C92.6691 23.5922 91.5075 23.94 90.0112 23.94ZM104.186 0.4725H109.226V28.035H104.186V0.4725ZM115.575 0.303955C115.832 0.303955 116.053 0.397033 116.239 0.583191C116.425 0.769349 116.518 0.993651 116.518 1.2561C116.518 1.50635 116.427 1.72455 116.244 1.91071C116.06 2.09686 115.841 2.18994 115.584 2.18994C115.322 2.18994 115.098 2.09686 114.911 1.91071C114.725 1.72455 114.632 1.50025 114.632 1.23779C114.632 0.987548 114.725 0.769349 114.911 0.583191C115.098 0.397033 115.319 0.303955 115.575 0.303955ZM120.986 0.303955C121.248 0.303955 121.467 0.392455 121.641 0.569458C121.815 0.746461 121.902 0.969237 121.902 1.23779C121.902 1.50635 121.808 1.73218 121.622 1.91528C121.436 2.09839 121.209 2.18994 120.94 2.18994C120.666 2.18994 120.443 2.10754 120.272 1.94275C120.101 1.77795 120.016 1.56128 120.016 1.29272C120.016 1.01806 120.109 0.784608 120.295 0.592346C120.481 0.400084 120.711 0.303955 120.986 0.303955ZM116.253 5.89325C116.07 5.71319 115.847 5.62317 115.584 5.62317C115.316 5.62317 115.092 5.71319 114.911 5.89325C114.731 6.0733 114.641 6.29455 114.641 6.55701C114.641 6.82556 114.733 7.05139 114.916 7.2345C115.099 7.4176 115.322 7.50916 115.584 7.50916C115.847 7.50916 116.07 7.41608 116.253 7.22992C116.436 7.04376 116.527 6.81641 116.527 6.54785C116.527 6.2915 116.436 6.0733 116.253 5.89325ZM120.922 5.63232C121.184 5.62012 121.41 5.70557 121.599 5.88867C121.789 6.07178 121.883 6.29761 121.883 6.56616C121.883 6.83472 121.789 7.06055 121.599 7.24365C121.41 7.42676 121.178 7.51831 120.904 7.51831C120.299 7.51831 119.997 7.21619 119.997 6.61194C119.997 6.33728 120.083 6.1084 120.254 5.92529C120.424 5.74219 120.647 5.64453 120.922 5.63232Z" fill="#262626"/>
</svg>
